PathFileType	4	(X/Y/Z)	RBDS021\RBDS021runT45.trc
DataRate	CameraRate	NumFrames	NumMarkers	Units	OrigDataRate	OrigDataStartFrame	OrigNumFrames
150.000000	150.000000	5	33	mm	150.000000	2812	4500
Frame#	Time	L.ASIS			L.Heel.Bottom			L.Heel.Lateral			L.Heel.Top			L.Iliac.Crest			L.MT1			L.MT5			L.PSIS			L.Shank.Bottom.Lateral			L.Shank.Bottom.Medial			L.Shank.Top.Lateral			L.Shank.Top.Medial			L.Thigh.Bottom.Lateral			L.Thigh.Bottom.Medial			L.Thigh.Top.Lateral			L.Thigh.Top.Medial			R.ASIS			R.ASY			R.Heel.Bottom			R.Heel.Lateral			R.Heel.Top			R.Iliac.Crest			R.MT1			R.MT5			R.PSIS			R.Shank.Bottom.Lateral			R.Shank.Bottom.Medial			R.Shank.Top.Lateral			R.Shank.Top.Medial			R.Thigh.Bottom.Lateral			R.Thigh.Bottom.Medial			R.Thigh.Top.Lateral			R.Thigh.Top.Medial			
		X1	Y1	Z1	X2	Y2	Z2	X3	Y3	Z3	X4	Y4	Z4	X5	Y5	Z5	X6	Y6	Z6	X7	Y7	Z7	X8	Y8	Z8	X9	Y9	Z9	X10	Y10	Z10	X11	Y11	Z11	X12	Y12	Z12	X13	Y13	Z13	X14	Y14	Z14	X15	Y15	Z15	X16	Y16	Z16	X17	Y17	Z17	X18	Y18	Z18	X19	Y19	Z19	X20	Y20	Z20	X21	Y21	Z21	X22	Y22	Z22	X23	Y23	Z23	X24	Y24	Z24	X25	Y25	Z25	X26	Y26	Z26	X27	Y27	Z27	X28	Y28	Z28	X29	Y29	Z29	X30	Y30	Z30	X31	Y31	Z31	X32	Y32	Z32	X33	Y33	Z33	

2813	18.74666666666667	2211.364602466337	968.266267238087	945.5498576117143	1661.710585394231	554.1017456457081	1102.672393265101	1658.503107270664	547.5285291929958	1045.228354539634	1699.127821997391	534.4461565411071	1080.42961585459	2161.348469388601	1057.508140381714	903.203880134711	1592.386886174166	351.5258701191802	1044.605880369611	1576.35326269834	435.0487842046546	966.8038592041473	2037.307484363852	1009.19110916955	1006.304514975097	1747.930097389974	492.6669417020837	974.6591527475614	1759.053055954679	523.3036280349089	1019.635537305866	1821.493155218657	505.5746459582058	946.6877710990627	1833.033519000914	536.3373335778641	988.9618517347595	2078.563010595461	599.5902169289096	872.7832848810166	2023.152232704413	614.3005092155827	915.8303165327953	2089.944457681956	707.5583347185271	854.7806110298811	2035.644317534884	722.0062378747359	894.5796338955298	2201.268437090171	970.3040393457036	1158.542339420599	2402.775465463347	83.79181965507509	1118.768789270895	2245.315941237899	42.51801107589181	1024.031936329947	2252.210869884394	45.53087455216163	1079.429478581542	2249.058701236944	83.65130965480782	1041.255853906507	2144.427671398034	1034.028370877899	1209.737425079988	2452.947067016541	62.14665135530286	1072.992346497598	2389.650184171972	28.3602834139588	1162.426380956101	2029.460231980846	1002.175762349343	1088.130204688629	2267.50879671095	168.0661602534289	1131.237697698069	2249.393382538934	181.2307428707621	1084.873956463201	2253.310078190406	247.4894633856787	1157.287437706223	2232.975552807272	256.4323894481927	1108.97964337536	2228.024392375507	621.2699335494835	1216.500693731117	2173.565724157028	595.0640981107326	1175.573419723478	2171.594357158924	714.8827067186013	1226.222391885746	2120.641470893747	689.8526239028663	1186.827324759174	
2814	18.75333333333333	2209.638871018029	962.9612816582284	945.6583510118634	1680.533066440042	559.4611549697918	1098.379214853054	1677.944805938951	551.9500776093652	1041.064520639036	1717.934786180049	538.8421302651336	1077.062638717353	2160.806525353255	1050.606205912808	902.3316936036562	1608.38258207767	357.1400231796104	1042.940867566443	1594.982200100149	439.5656866400574	963.5311601120483	2034.655109797227	1002.779358745234	1006.109353343683	1766.683496651088	493.676551934468	971.9534304851132	1778.779699445783	524.7768363982599	1016.348524815354	1840.56314135257	503.7884040707388	943.7813380828923	1853.139581171925	534.9105356478594	985.4736975900026	2089.68752039153	591.985510098807	871.9262268903869	2033.543021243928	604.3390243038987	914.514381741261	2097.059457660152	700.3534076917726	854.2433166118975	2042.075733997663	712.5517690757493	893.6495668691514	2200.322940654558	965.8647870439436	1158.664890001694	2377.12666471835	78.83109251620677	1113.81711054893	2218.972596976914	38.82186616864064	1019.082590716766	2225.33556983377	44.06679533523857	1074.245292925158	2224.085862678151	80.46637526363465	1034.363540255095	2143.899300756712	1028.844621182579	1210.121493093484	2427.088719405159	53.94361464005767	1069.549223086928	2360.953443926423	26.80155514963831	1160.094644352079	2027.412296909813	997.5161037094396	1088.001760519212	2246.889336715303	164.516821111044	1126.157627523233	2229.25319640292	179.2482386751628	1080.054658080497	2236.655971346278	244.1419534116778	1153.364546610454	2216.531090955336	254.6627980062331	1105.275723409659	2221.964121238137	616.2990164452232	1216.778733438248	2167.842018975	590.8600303186296	1174.95217183856	2166.137837877984	710.3984882455226	1226.498695985518	2115.6104379993	686.0854360985212	1186.177754998803	
2815	18.76	2207.566243408184	957.1870411758717	945.9227101565235	1699.116833485853	563.3899245673764	1092.98138153827	1697.313833265477	554.4856191933488	1035.901324574509	1736.692804095956	542.0490577424549	1072.801621440118	2159.978892511841	1043.206802438113	901.4666726945229	1626.127663692919	360.62349841795	1041.517871654232	1614.701978731909	441.0589343674522	960.0081396862214	2031.597934620821	996.5824708037802	1005.930014056592	1786.076509585373	493.4924139739601	968.8767256516561	1798.949279716004	525.2139667694075	1012.661446188097	1860.305114376715	501.1476111952335	940.7119814577829	1873.669941966177	532.7799437589227	981.7885022429874	2101.675941490906	584.989995686155	871.2888844594542	2044.662995376653	594.7155274319969	913.0777326339336	2104.669942390459	693.5936084489758	853.9255747685326	2048.902206514196	703.2635049471899	892.660385434725	2198.974886087063	961.3828955697113	1158.847510557225	2350.613254161502	75.31774517641625	1108.788717018954	2191.54899467871	35.85880837993322	1015.087589411389	2197.704099806008	43.5746719054243	1069.910409162402	2197.981671953138	78.03447559351363	1028.262875345864	2143.09179590162	1023.411543973094	1210.528476515275	2400.043454025613	47.28108823185534	1065.937815175605	2331.861334199359	26.66826813207505	1157.78556085065	2024.912006933743	993.1218406595307	1087.739207129023	2225.785833801483	162.035483387862	1121.626361750031	2208.41322445191	178.241527186968	1075.892917726156	2219.759334310022	241.7449811215724	1149.869087888587	2199.564980748834	253.756757346793	1102.173239408705	2215.541434156351	611.6501134647668	1216.988568013583	2161.785821157409	586.9993855287198	1174.210984664921	2160.335980860224	706.2070492961709	1226.768911357068	2110.236160366939	682.6178511329867	1185.495581697548	
2816	18.76666666666667	2205.168241074184	951.0871836723843	946.337161231295	1717.267045597723	565.8281707777036	1086.558662036462	1716.413855514724	555.1300653215648	1029.838795551295	1755.211510122057	544.0334275859593	1067.696229553617	2158.661771417014	1035.500904612276	900.5996791906406	1645.40061592167	361.9169821540196	1040.368009802846	1635.278334074767	439.5514296448911	956.3523005568767	2028.219889778642	990.8094168718144	1005.746203380161	1805.944946823438	492.2047434457666	965.4965433753147	1819.349586221787	524.6869540344928	1008.667199989003	1880.579417301039	497.837401040047	937.569758079751	1894.439636854526	530.115569705638	978.0242573455272	2114.487938356836	578.9209626847995	870.8832592553396	2056.549401305085	585.7248264629084	911.6219171982069	2112.705081639807	687.5580031314025	853.8637399553521	2056.119891599884	694.4006627205227	891.7301620972688	2197.188663119078	956.9838006876896	1159.150915654567	2323.411344149405	73.11656617843083	1104.087348774563	2163.296692698777	33.72899125809625	1012.135407620357	2169.520689673746	43.90701333871439	1066.562434307067	2170.939488098204	76.40337196835551	1023.236942350431	2141.905160352519	1017.785988849711	1210.949728300555	2372.056890150167	42.22055203094719	1062.509566899629	2302.584473055696	27.58675178106469	1155.679038745002	2022.024672844575	989.1131866640225	1087.285973148246	2204.223781353722	160.583193357242	1117.891535337968	2186.943550813714	178.1409108787382	1072.602685674382	2202.545923320522	240.2452318613981	1146.976850035217	2182.064804139939	253.6453283818127	1099.803877343405	2208.726288908027	607.410699596177	1217.106503881854	2155.299210447638	583.5942631380331	1173.407047003455	2154.252851455326	702.4450007979377	1227.020571336509	2104.517815782171	679.6142701333538	1184.845012437061	
2817	18.77333333333333	2202.48909322664	944.8466166079746	946.8728224736365	1734.812993751755	566.67020468967	1079.237089417014	1735.08462231036	553.8679735998317	1023.018211137838	1773.317123069119	544.7261050915473	1061.834678879951	2156.666037505211	1027.735461290469	899.7212115838919	1666.004412235885	360.993566336705	1039.49288864407	1656.540455057683	435.1285668253063	952.6726332561882	2024.632015078281	985.6557462289361	1005.539659458844	1826.136763059092	489.9091853384397	961.8939843204297	1839.769816796638	523.2625285635412	1004.470893290621	1901.241386205209	494.0531093303355	934.4507315211084	1915.255766116838	527.0885444754219	974.3043796826349	2128.035496459956	574.0799241366972	870.7226863916645	2069.205237448657	577.674042076692	910.2658485445882	2121.077312739091	682.5031849090783	854.0796361531808	2063.716929308423	686.2279205731087	890.9678317813574	2194.977888936607	952.7932955296233	1159.62440469556	2295.635924237735	72.00455874113291	1100.068907501463	2134.411118654617	32.46816891507391	1010.245998831036	2140.912194080106	44.86864253274467	1064.274185027713	2143.108854942578	75.56661493885731	1019.48551929081	2140.259127395866	1012.077244540647	1211.369047880141	2343.331257170866	38.69155166576423	1059.576448852425	2273.231111027753	29.14472959081277	1153.945394213772	2018.856995275318	985.5904812296928	1086.606291415002	2182.164985621512	160.0517007655478	1115.134445334189	2164.856190392066	178.8207090262556	1070.331295318445	2184.879997827692	239.5263777921677	1144.820153099278	2163.968430398071	254.2086105039836	1098.251243807894	2201.492291039208	603.6262921816194	1217.118276468588	2148.281652321225	580.7156933485409	1172.618521332115	2147.958863114922	699.2068308937063	1227.246796455077	2098.459910453969	677.1989665336915	1184.299798145194	
